<svg width="24" height="24" viewBox="0 0 24 24" fill="none" xmlns="http://www.w3.org/2000/svg">
<path d="M12 22C6.477 22 2 17.523 2 12C2 6.477 6.477 2 12 2C17.523 2 22 6.477 22 12C22 17.523 17.523 22 12 22ZM12 20C14.1217 20 16.1566 19.1571 17.6569 17.6569C19.1571 16.1566 20 14.1217 20 12C20 9.87827 19.1571 7.84344 17.6569 6.34315C16.1566 4.84285 14.1217 4 12 4C9.87827 4 7.84344 4.84285 6.34315 6.34315C4.84285 7.84344 4 9.87827 4 12C4 14.1217 4.84285 16.1566 6.34315 17.6569C7.84344 19.1571 9.87827 20 12 20ZM7.02497 12.4992C6.99741 12.2244 7.22386 12 7.5 12H8.5C8.77614 12 8.99575 12.2254 9.04156 12.4977C9.14436 13.1087 9.43478 13.6774 9.87868 14.1213C10.4413 14.6839 11.2044 15 12 15C12.7956 15 13.5587 14.6839 14.1213 14.1213C14.5652 13.6774 14.8556 13.1087 14.9584 12.4977C15.0043 12.2254 15.2239 12 15.5 12H16.5C16.7761 12 17.0026 12.2244 16.975 12.4992C16.8604 13.6419 16.3548 14.7163 15.5355 15.5355C14.5979 16.4732 13.3261 17 12 17C10.6739 17 9.40215 16.4732 8.46447 15.5355C7.64519 14.7163 7.13959 13.6419 7.02497 12.4992Z" fill="#A6A6A6"/>
</svg>
