<svg width="12" height="10" viewBox="0 0 12 10" fill="none" xmlns="http://www.w3.org/2000/svg">
<path d="M0 4.92678C0 4.65064 0.205203 4.42242 0.47144 4.3863L0.545455 4.38132L10.1338 4.38176L6.66983 0.931921C6.45636 0.719367 6.45561 0.374005 6.66817 0.160534C6.8614 -0.0335312 7.16439 -0.0517883 7.37826 0.106192L7.43955 0.158873L11.8396 4.53996C11.8677 4.56798 11.8921 4.5983 11.9129 4.63033C11.9187 4.63996 11.9247 4.64983 11.9304 4.65988C11.9356 4.66851 11.9403 4.67746 11.9447 4.68651C11.9508 4.69968 11.9569 4.71329 11.9623 4.72717C11.9668 4.73788 11.9705 4.74829 11.9738 4.75878C11.9779 4.7718 11.9818 4.78567 11.9851 4.79975C11.9876 4.80958 11.9896 4.81904 11.9913 4.82853C11.9938 4.84267 11.9958 4.85729 11.9973 4.87209C11.9986 4.88337 11.9993 4.89456 11.9998 4.90575C11.9999 4.91254 12 4.91964 12 4.92678L11.9997 4.94791C11.9993 4.95861 11.9986 4.96931 11.9975 4.97998L12 4.92678C12 4.9612 11.9968 4.99488 11.9907 5.02753C11.9893 5.03533 11.9876 5.04333 11.9858 5.0513C11.9819 5.06772 11.9774 5.08354 11.9722 5.09904C11.9697 5.10674 11.9668 5.11497 11.9636 5.12314C11.9572 5.13955 11.9503 5.1552 11.9427 5.17044C11.9391 5.1776 11.9352 5.1851 11.931 5.19253C11.9242 5.20464 11.9172 5.21616 11.9098 5.22738C11.9045 5.23532 11.8987 5.24359 11.8927 5.25173L11.8879 5.25801C11.8733 5.27721 11.8573 5.2954 11.8402 5.31247L11.8396 5.31298L7.43959 9.6948C7.22613 9.90737 6.88077 9.90665 6.6682 9.6932C6.47495 9.49915 6.45797 9.19609 6.61686 8.98288L6.6698 8.92181L10.1324 5.47267L0.545455 5.47223C0.244208 5.47223 0 5.22802 0 4.92678Z" fill="#0080FF"/>
</svg>
