<svg width="14" height="17" viewBox="0 0 14 17" fill="none" xmlns="http://www.w3.org/2000/svg">
<path d="M8.81555 15.2121C8.2161 16.0606 7.46746 16.4848 6.56874 16.4848C5.67002 16.4848 4.92139 16.0606 4.32194 15.2121M11.1387 13.9393H1.99875C1.73618 13.9395 1.47828 13.8738 1.25142 13.7489C1.02455 13.6241 0.836862 13.4447 0.707525 13.229C0.578189 13.0132 0.511846 12.7689 0.515278 12.5211C0.51871 12.2732 0.591793 12.0306 0.727058 11.8181C1.60909 10.4302 2.07505 8.84214 2.07514 7.22359V6.30299C2.07514 5.40286 2.45388 4.5396 3.12806 3.90311C3.80223 3.26662 4.7166 2.90905 5.67002 2.90905H7.46746C8.42089 2.90905 9.33526 3.26662 10.0094 3.90311C10.6836 4.5396 11.0623 5.40286 11.0623 6.30299V7.22359C11.0623 8.84165 11.5279 10.4309 12.4104 11.8181C12.5457 12.0306 12.6188 12.2732 12.6222 12.5211C12.6256 12.7689 12.5593 13.0132 12.43 13.229C12.3006 13.4447 12.1129 13.6241 11.8861 13.7489C11.6592 13.8738 11.4013 13.9395 11.1387 13.9393V13.9393Z" stroke="white" stroke-linecap="round" stroke-linejoin="round"/>
<ellipse cx="10.8823" cy="2.90909" rx="3.0268" ry="2.90909" fill="#FFE600"/>
</svg>
