<svg width="23" height="19" viewBox="0 0 23 19" fill="none" xmlns="http://www.w3.org/2000/svg">
<path d="M18.6484 1.79601C20.1429 3.29458 20.7051 5.36662 20.3351 7.29554C20.9157 7.45909 21.4657 7.76883 21.9236 8.22371C23.3588 9.64868 23.3588 11.9589 21.9236 13.3828L16.3556 18.911L13.2665 15.8443L10.2223 18.8957L1.55392 10.215C-0.595804 7.80665 -0.515049 4.10827 1.79618 1.79601C4.1115 -0.518284 7.815 -0.595973 10.2233 1.56295C12.6245 -0.592906 16.3352 -0.521351 18.6484 1.79601ZM12.2279 9.67526C11.5982 10.2998 11.5982 11.3077 12.2279 11.9323L16.3556 16.0304L20.4833 11.9323C21.113 11.3077 21.113 10.2998 20.4833 9.67526C19.8455 9.04149 18.8048 9.04149 18.1649 9.6773L16.3536 11.4703L14.9153 10.0433L14.5442 9.67526C13.9064 9.04149 12.8658 9.04149 12.2279 9.67526ZM3.24262 3.24245C1.71952 4.76555 1.64285 7.20354 3.04635 8.81455L10.2223 16.0018L11.816 14.4051L10.7876 13.3828C9.35241 11.9589 9.35241 9.64868 10.7876 8.22371C12.2228 6.79976 14.5494 6.79976 15.9845 8.22371L16.3556 8.59171L16.7267 8.22371C17.1611 7.79336 17.6773 7.49283 18.2242 7.32212C18.6495 5.92475 18.304 4.34542 17.201 3.24041C15.6677 1.70504 13.1939 1.64268 11.589 3.08401L10.2244 4.30862L8.85868 3.08503C7.24869 1.64166 4.78003 1.70504 3.24262 3.24245Z" fill="white"/>
</svg>
