<svg width="11" height="12" viewBox="0 0 11 12" fill="none" xmlns="http://www.w3.org/2000/svg">
<path d="M9.52737 4.03129L9.58705 4.0321C9.80849 4.05041 9.97824 4.23429 9.98999 4.45563L9.98429 4.57904L9.7956 6.88979L9.59765 9.14481C9.55577 9.59499 9.51829 9.9747 9.48592 10.2736C9.37348 11.3153 8.69729 11.9594 7.67796 11.9785C6.08962 12.0078 4.56286 12.0075 3.08024 11.9754C2.09039 11.9547 1.4242 11.3036 1.31373 10.2778L1.23738 9.5221L1.10396 8.05622L0.967295 6.44764L0.811031 4.51673C0.791609 4.26899 0.971706 4.05201 1.21329 4.0321C1.43474 4.01384 1.63098 4.1675 1.67711 4.38406L1.69507 4.56104L1.8418 6.37123L2.00201 8.24753C2.07387 9.05977 2.1362 9.71711 2.18608 10.1789C2.24903 10.7634 2.55683 11.0642 3.09847 11.0756C4.56951 11.1074 6.08489 11.1077 7.66206 11.0786C8.23662 11.0678 8.54931 10.77 8.6136 10.1744L8.68962 9.42274C8.71187 9.19111 8.73565 8.93537 8.76081 8.65757L8.92119 6.81228L9.11437 4.4445C9.13222 4.21741 9.31153 4.04334 9.52737 4.03129ZM0.438834 2.99351C0.196473 2.99351 0 2.79203 0 2.54349C0 2.31567 0.165092 2.12738 0.379287 2.09758L0.438834 2.09348H2.35063C2.57782 2.09348 2.77671 1.94357 2.84785 1.72757L2.86526 1.66088L3.01383 0.903196C3.14467 0.401379 3.56952 0.0440959 4.0674 0.00379889L4.16155 0H6.63833C7.14447 0 7.5914 0.327765 7.76346 0.834231L7.79244 0.931252L7.93459 1.6607C7.97922 1.88923 8.16151 2.05992 8.38205 2.08906L8.44925 2.09348H10.3612C10.6035 2.09348 10.8 2.29496 10.8 2.54349C10.8 2.77132 10.6349 2.9596 10.4207 2.9894L10.3612 2.99351H0.438834ZM6.63833 0.900033H4.16155C4.03842 0.900033 3.92898 0.973935 3.88351 1.06682L3.86809 1.10762L3.72588 1.83743C3.70848 1.9265 3.68327 2.01228 3.65107 2.09407L7.14888 2.09418C7.12878 2.04316 7.1114 1.99058 7.09695 1.93661L7.07397 1.83725L6.93817 1.13568C6.90643 1.01395 6.80841 0.92483 6.69013 0.904452L6.63833 0.900033Z" fill="#041E2F"/>
</svg>
